# xmcd
# Copyright (C) 1995-1998 Ti Kan
#
# Track frame offsets:
#       150
#       17823
#       34961
#       50919
#       66663
#       82373
#       100042
#       116201
#       130371
#       146689
#       160596
#       181099
#
# Disc length: 2651 seconds
#
# Revision: 2
# Processed by: cddbd v1.5.1PL0 Copyright (c) Steve Scherf et al.
# Submitted via: CD-Transfer v1.0
#
DISCID=b40a590c
DTITLE=Doris Ackermann - When I Come Back Home
DYEAR=2005
DGENRE=
TTITLE0=When I Come Back Home
TTITLE1=Let Me Be Your Guide
TTITLE2=Saturday Night
TTITLE3=I'll Be An Angel For Someone
TTITLE4=Drivin' Home
TTITLE5=Anything On Earth
TTITLE6=The Way You Are
TTITLE7=On The Run
TTITLE8=Just Tell Me
TTITLE9=Leave All The Promises
TTITLE10=The Secret Of Life
TTITLE11=Strong Enough
EXTD=
EXTT0=
EXTT1=
EXTT2=
EXTT3=
EXTT4=
EXTT5=
EXTT6=
EXTT7=
EXTT8=
EXTT9=
EXTT10=
EXTT11=
PLAYORDER=
